<svg width="630" height="832" viewBox="0 0 630 832" fill="none" xmlns="http://www.w3.org/2000/svg">
<rect width="630" height="832" fill="#0066D2"/>
<path d="M485.895 446.615C480.553 446.615 475.723 445.347 471.406 442.812C467.12 440.246 463.754 436.79 461.309 432.443C458.894 428.096 457.687 423.357 457.687 418.225C457.687 413.034 458.894 408.264 461.309 403.917C463.754 399.54 467.12 396.084 471.406 393.549C475.723 390.983 480.583 389.7 485.986 389.7C489.548 389.7 492.883 390.243 495.993 391.33C499.132 392.386 501.939 393.896 504.414 395.858C504.928 396.28 505.184 396.748 505.184 397.261C505.184 397.593 505.048 397.971 504.777 398.393L499.751 405.502C499.389 406.045 498.951 406.317 498.438 406.317C498.045 406.317 497.638 406.166 497.215 405.864C495.615 404.717 493.955 403.842 492.234 403.238C490.514 402.634 488.597 402.333 486.484 402.333C483.798 402.333 481.307 403.027 479.013 404.415C476.719 405.774 474.893 407.676 473.534 410.121C472.176 412.535 471.497 415.237 471.497 418.225C471.497 421.184 472.176 423.855 473.534 426.24C474.923 428.625 476.764 430.511 479.058 431.9C481.383 433.258 483.873 433.937 486.529 433.937C488.642 433.937 490.544 433.635 492.234 433.032C493.955 432.428 495.615 431.553 497.215 430.405C497.668 430.104 498.06 429.953 498.392 429.953C498.906 429.953 499.358 430.239 499.751 430.813L504.777 437.922C505.079 438.344 505.23 438.752 505.23 439.144C505.23 439.537 505.048 439.899 504.686 440.231C502.181 442.253 499.328 443.823 496.128 444.94C492.959 446.057 489.548 446.615 485.895 446.615Z" fill="#F5F5F5"/>
<path d="M427.174 389.655C431.612 389.655 435.491 390.651 438.811 392.643C442.162 394.635 444.743 397.458 446.554 401.11C448.395 404.763 449.316 409.004 449.316 413.834V443.446C449.316 444.653 448.712 445.257 447.505 445.257H437.181C435.974 445.257 435.37 444.653 435.37 443.446V415.373C435.37 412.777 434.917 410.513 434.012 408.581C433.106 406.619 431.793 405.11 430.072 404.053C428.382 402.997 426.39 402.469 424.095 402.469C421.681 402.469 419.447 403.042 417.394 404.189C415.342 405.306 413.696 406.815 412.459 408.717C411.251 410.619 410.648 412.641 410.648 414.785V443.446C410.648 444.653 410.044 445.257 408.836 445.257H398.558C397.351 445.257 396.747 444.653 396.747 443.446V392.417C396.747 391.209 397.351 390.606 398.558 390.606H406.482C407.508 390.606 408.188 391.089 408.52 392.055L410.104 396.945C412.187 394.832 414.813 393.096 417.983 391.738C421.152 390.349 424.216 389.655 427.174 389.655Z" fill="#F5F5F5"/>
<path d="M363.243 459.882C362.881 460.848 362.187 461.331 361.16 461.331H350.293C349.78 461.331 349.388 461.225 349.116 461.014C348.845 460.803 348.709 460.501 348.709 460.108C348.709 459.807 348.769 459.52 348.89 459.248L354.595 445.031L334.446 392.688C334.355 392.417 334.31 392.16 334.31 391.919C334.31 391.496 334.446 391.179 334.718 390.968C334.989 390.726 335.367 390.605 335.85 390.605H347.396C348.482 390.605 349.177 391.088 349.478 392.054L361.568 427.508L373.703 392.1C374.004 391.104 374.699 390.605 375.785 390.605H387.377C387.86 390.605 388.237 390.726 388.509 390.968C388.811 391.179 388.962 391.496 388.962 391.919C388.962 392.16 388.916 392.417 388.826 392.688L363.243 459.882Z" fill="#F5F5F5"/>
<path d="M307.512 446.298C302.682 446.298 298.124 445.378 293.837 443.536C289.581 441.695 285.883 439.023 282.744 435.522C282.382 435.099 282.201 434.692 282.201 434.299C282.201 433.847 282.427 433.394 282.88 432.941L289.853 426.24C290.245 425.847 290.653 425.651 291.075 425.651C291.558 425.651 291.996 425.878 292.388 426.33C294.411 428.413 296.705 429.998 299.271 431.085C301.837 432.141 304.478 432.669 307.195 432.669C310.092 432.669 312.311 432.141 313.851 431.085C315.42 429.998 316.205 428.519 316.205 426.647C316.205 425.379 315.843 424.308 315.118 423.432C314.424 422.527 313.202 421.682 311.451 420.897C309.73 420.112 307.255 419.252 304.025 418.316C298.773 416.807 294.215 414.513 290.351 411.434C286.487 408.355 284.555 404.068 284.555 398.574C284.555 395.284 285.4 392.266 287.091 389.519C288.781 386.772 291.317 384.583 294.698 382.953C298.078 381.293 302.199 380.463 307.059 380.463C311.164 380.463 315.088 381.202 318.831 382.682C322.604 384.13 325.97 386.108 328.928 388.613C329.381 388.975 329.608 389.398 329.608 389.881C329.608 390.303 329.426 390.726 329.064 391.149L322.68 398.393C322.288 398.876 321.85 399.118 321.367 399.118C320.974 399.118 320.567 398.952 320.144 398.62C318.394 397.261 316.386 396.129 314.122 395.224C311.888 394.288 309.685 393.82 307.512 393.82C305.036 393.82 303.089 394.243 301.671 395.088C300.282 395.903 299.588 397.11 299.588 398.71C299.588 399.978 299.995 401.035 300.81 401.88C301.625 402.695 302.697 403.404 304.025 404.008C305.383 404.581 307.406 405.306 310.092 406.181C310.213 406.211 310.59 406.332 311.224 406.543C315.571 407.992 319.163 409.547 322.001 411.207C324.838 412.867 327.057 414.92 328.657 417.365C330.257 419.81 331.057 422.799 331.057 426.33C331.057 430.345 330.075 433.862 328.113 436.88C326.151 439.899 323.389 442.223 319.827 443.853C316.265 445.483 312.16 446.298 307.512 446.298Z" fill="#F5F5F5"/>
<path d="M248.837 389.7C253.908 389.7 258.572 390.968 262.828 393.503C267.114 396.009 270.495 399.435 272.97 403.782C275.476 408.098 276.728 412.837 276.728 417.999C276.728 423.161 275.491 427.93 273.016 432.307C270.54 436.654 267.16 440.095 262.873 442.631C258.617 445.166 253.938 446.434 248.837 446.434C245.999 446.434 243.403 445.966 241.049 445.031C238.724 444.095 236.672 442.797 234.891 441.137V459.52C234.891 460.727 234.287 461.331 233.08 461.331H222.801C221.594 461.331 220.99 460.727 220.99 459.52V392.417C220.99 391.209 221.594 390.605 222.801 390.605H230.544C231.57 390.605 232.25 391.088 232.582 392.054L233.668 395.994C237.623 391.798 242.679 389.7 248.837 389.7ZM248.61 433.122C251.327 433.122 253.757 432.488 255.9 431.22C258.074 429.953 259.764 428.187 260.971 425.923C262.209 423.629 262.828 421.048 262.828 418.18C262.828 415.313 262.209 412.732 260.971 410.438C259.734 408.113 258.028 406.287 255.855 404.959C253.682 403.631 251.236 402.967 248.52 402.967C245.803 402.967 243.343 403.631 241.139 404.959C238.936 406.287 237.2 408.113 235.932 410.438C234.664 412.732 234.031 415.313 234.031 418.18C234.031 421.048 234.664 423.614 235.932 425.878C237.2 428.142 238.936 429.922 241.139 431.22C243.373 432.488 245.863 433.122 248.61 433.122Z" fill="#F5F5F5"/>
<path d="M195.414 384.04C194.207 384.04 193.603 383.437 193.603 382.229V372.811C193.603 371.604 194.207 371 195.414 371H205.873C207.081 371 207.684 371.604 207.684 372.811V382.229C207.684 383.437 207.081 384.04 205.873 384.04H195.414ZM207.594 443.446C207.594 444.654 206.99 445.257 205.783 445.257H195.504C194.297 445.257 193.693 444.654 193.693 443.446V392.417C193.693 391.209 194.297 390.606 195.504 390.606H205.783C206.99 390.606 207.594 391.209 207.594 392.417V443.446Z" fill="#F5F5F5"/>
<path d="M174.097 389.7C177.689 389.7 181.311 390.741 184.964 392.824C185.597 393.216 185.914 393.715 185.914 394.318C185.914 394.62 185.824 394.952 185.643 395.314L181.115 403.827C180.753 404.491 180.285 404.823 179.711 404.823C179.349 404.823 179.002 404.717 178.67 404.506C176.376 403.268 174.202 402.65 172.15 402.65C170.157 402.65 168.256 403.238 166.445 404.415C164.633 405.562 163.169 407.268 162.052 409.532C160.936 411.766 160.377 414.437 160.377 417.546V443.446C160.377 444.653 159.773 445.257 158.566 445.257H148.288C147.08 445.257 146.477 444.653 146.477 443.446V392.417C146.477 391.209 147.08 390.605 148.288 390.605H156.212C157.238 390.605 157.917 391.088 158.249 392.054L160.015 397.216C161.736 394.801 163.743 392.945 166.037 391.647C168.331 390.349 171.018 389.7 174.097 389.7Z" fill="#F5F5F5"/>
<path d="M120.374 443.446C120.374 444.653 119.771 445.257 118.563 445.257H107.515C106.308 445.257 105.704 444.653 105.704 443.446V395.315H89.8112C88.6037 395.315 88 394.711 88 393.503V383.452C88 382.244 88.6037 381.64 89.8112 381.64H136.312C137.52 381.64 138.124 382.244 138.124 383.452V393.503C138.124 394.711 137.52 395.315 136.312 395.315H120.374V443.446Z" fill="#F5F5F5"/>
<path d="M530.884 433.123L530.231 416.436L537.543 410.842C540.676 408.444 542.187 404.711 541.608 402.575C539.985 401.239 536.273 401.501 533.14 403.898L525.828 409.492L511.806 403.034C510.948 402.66 510.174 402.908 509.694 403.619L509.005 404.489C508.494 405.396 508.517 406.41 509.135 407.14L517.472 415.886L512.984 421.039L507.649 419.964L505.56 421.563L510.273 426.55L512.898 433.136L514.987 431.537L515.919 425.668L521.875 422.829L526.452 434.452C526.861 435.342 527.719 435.717 528.671 435.504L529.622 435.292C530.427 434.848 530.907 434.137 530.884 433.123Z" fill="#F2B705"/>
</svg>
